HIERARCHY
ROOT Hips
{
	OFFSET 0.000000 0.000000 0.000000 
	CHANNELS 6 Xposition Yposition Zposition Zrotation Xrotation Yrotation
	JOINT Spine
	{
		OFFSET -0.000000 8.285670 0.000000 
		CHANNELS 3 Zrotation Xrotation Yrotation
		JOINT Spine1
		{
			OFFSET -0.000000 20.280901 0.000000 
			CHANNELS 3 Zrotation Xrotation Yrotation
			JOINT Neck
			{
				OFFSET -0.000000 22.301800 0.000000 
				CHANNELS 3 Zrotation Xrotation Yrotation
				JOINT Head
				{
					OFFSET -0.000000 15.661900 2.020890 
					CHANNELS 3 Zrotation Xrotation Yrotation
					End Site
					{
						OFFSET -0.000000 20.208887 0.000000 
					}
				}
			}
			JOINT LeftShoulder
			{
				OFFSET 3.887530 15.503099 -0.416373 
				CHANNELS 3 Zrotation Xrotation Yrotation
				JOINT LeftArm
				{
					OFFSET 20.767099 0.000000 0.000000 
					CHANNELS 3 Zrotation Xrotation Yrotation
					JOINT LeftForeArm
					{
						OFFSET 26.608500 0.000000 0.000000 
						CHANNELS 3 Zrotation Xrotation Yrotation
						JOINT LeftHand
						{
							OFFSET 25.563202 0.000000 0.000000 
							CHANNELS 3 Zrotation Xrotation Yrotation
							End Site
							{
								OFFSET 15.156667 0.000000 0.000000 
							}
						}
					}
				}
			}
			JOINT RightShoulder
			{
				OFFSET -4.190880 15.503099 -0.416373 
				CHANNELS 3 Zrotation Xrotation Yrotation
				JOINT RightArm
				{
					OFFSET -20.767099 0.000000 0.000000 
					CHANNELS 3 Zrotation Xrotation Yrotation
					JOINT RightForeArm
					{
						OFFSET -26.608500 0.000000 0.000000 
						CHANNELS 3 Zrotation Xrotation Yrotation
						JOINT RightHand
						{
							OFFSET -25.563202 0.000000 0.000000 
							CHANNELS 3 Zrotation Xrotation Yrotation
							End Site
							{
								OFFSET -15.156667 0.000000 0.000000 
							}
						}
					}
				}
			}
		}
	}
	JOINT LeftUpLeg
	{
		OFFSET 10.104500 0.000000 0.000000 
		CHANNELS 3 Zrotation Xrotation Yrotation
		JOINT LeftLeg
		{
			OFFSET -0.000000 -50.743301 0.000000 
			CHANNELS 3 Zrotation Xrotation Yrotation
			JOINT LeftFoot
			{
				OFFSET -0.000000 -35.579197 0.000000 
				CHANNELS 3 Zrotation Xrotation Yrotation
				JOINT LeftToeBase
				{
					OFFSET -0.000000 -6.567910 15.156700 
					CHANNELS 3 Zrotation Xrotation Yrotation
					End Site
					{
						OFFSET -0.000000 0.000000 4.041778 
					}
				}
			}
		}
	}
	JOINT RightUpLeg
	{
		OFFSET -10.104500 0.000000 0.000000 
		CHANNELS 3 Zrotation Xrotation Yrotation
		JOINT RightLeg
		{
			OFFSET -0.000000 -50.743301 0.000000 
			CHANNELS 3 Zrotation Xrotation Yrotation
			JOINT RightFoot
			{
				OFFSET -0.000000 -35.579197 0.000000 
				CHANNELS 3 Zrotation Xrotation Yrotation
				JOINT RightToeBase
				{
					OFFSET -0.000000 -6.567910 15.156700 
					CHANNELS 3 Zrotation Xrotation Yrotation
					End Site
					{
						OFFSET -0.000000 0.000000 4.041778 
					}
				}
			}
		}
	}
}
MOTION
Frames: 13
Frame Time: 0.010000
0.000000 90.450348 0.000000 -2.728399 6.509995 5.589268 1.020914 -13.514886 -2.352329 0.879824 9.949875 -2.549878 0.000000 0.000000 0.000000 0.000000 0.000000 0.000000 -0.931598 0.113314 -3.590685 -78.383041 33.365135 -13.678998 3.164362 -2.576702 -9.496135 -20.881466 -1.580829 -3.980106 2.444757 -0.132582 -2.771965 65.109543 38.786873 25.264893 0.102042 -0.743793 8.124635 30.006342 -3.509198 -10.269705 7.570854 -9.245000 0.284793 -3.061913 14.570683 -17.804468 15.226337 -14.543420 40.765900 0.000000 0.000000 0.000000 -3.973075 -6.129843 -5.422884 6.013652 9.039762 -3.212644 0.566940 -15.380895 -8.600675 0.000000 0.000000 0.000000 
-0.000283 90.450172 -0.000347 -2.729199 6.516575 5.593600 1.015795 -13.526468 -2.355817 0.890670 9.963361 -2.553933 0.000000 0.000000 0.000000 0.000000 0.000000 0.000000 -0.941988 0.126191 -3.585996 -78.351097 33.137379 -13.716232 3.013696 -2.443653 -9.508087 -20.847168 -1.462804 -3.970948 2.439141 -0.139122 -2.770815 65.110283 38.776402 25.266371 0.111393 -0.739997 8.121651 30.003729 -3.505784 -10.269691 7.570186 -9.257462 0.286338 -3.061868 14.580839 -17.792812 15.219019 -14.561851 40.752533 0.000000 0.000000 0.000000 -3.971259 -6.140858 -5.505463 5.994453 9.057574 -3.160060 0.582446 -15.383526 -8.571757 0.000000 0.000000 0.000000 
-0.000557 90.449982 -0.000671 -2.729943 6.523010 5.597900 1.010860 -13.537960 -2.359264 0.901005 9.976999 -2.557899 0.000000 0.000000 0.000000 0.000000 0.000000 0.000000 -0.951959 0.138991 -3.581318 -78.319595 32.910282 -13.753242 2.863343 -2.310935 -9.519408 -20.812830 -1.345192 -3.961620 2.433776 -0.145834 -2.769681 65.111084 38.766205 25.267717 0.120588 -0.736330 8.118769 30.001181 -3.502473 -10.269667 7.569555 -9.269735 0.287647 -3.062028 14.590957 -17.781187 15.211845 -14.580225 40.739368 0.000000 0.000000 0.000000 -3.969576 -6.151626 -5.587430 5.975541 9.075126 -3.107446 0.597688 -15.386181 -8.543487 0.000000 0.000000 0.000000 
-0.000836 90.449814 -0.001034 -2.730721 6.529660 5.602160 1.005863 -13.549555 -2.362695 0.911577 9.990359 -2.561885 0.000000 0.000000 0.000000 0.000000 0.000000 0.000000 -0.962081 0.151427 -3.576706 -78.288971 32.685577 -13.789274 2.714605 -2.179529 -9.529817 -20.778887 -1.228724 -3.952428 2.428396 -0.152151 -2.768529 65.111588 38.755920 25.269341 0.129734 -0.732589 8.115902 29.998606 -3.499254 -10.269617 7.568886 -9.282251 0.289148 -3.062040 14.601090 -17.769632 15.204603 -14.598518 40.726162 0.000000 0.000000 0.000000 -3.967842 -6.162632 -5.668607 5.956620 9.092525 -3.055642 0.612910 -15.388743 -8.515135 0.000000 0.000000 0.000000 
-0.001107 90.449638 -0.001358 -2.731466 6.536065 5.606357 1.001034 -13.560866 -2.366068 0.921829 10.003590 -2.565809 0.000000 0.000000 0.000000 0.000000 0.000000 0.000000 -0.972025 0.164048 -3.572119 -78.258797 32.464737 -13.825055 2.568427 -2.050259 -9.539441 -20.745729 -1.114238 -3.943323 2.423072 -0.158476 -2.767348 65.112244 38.745808 25.270857 0.138814 -0.728972 8.113019 29.996090 -3.496003 -10.269524 7.568188 -9.294454 0.290717 -3.061953 14.611165 -17.758171 15.197367 -14.616753 40.712879 0.000000 0.000000 0.000000 -3.966138 -6.173288 -5.748531 5.937910 9.109585 -3.004611 0.628018 -15.391249 -8.487199 0.000000 0.000000 0.000000 
-0.001375 90.449471 -0.001690 -2.732213 6.542545 5.610474 0.996237 -13.572199 -2.369414 0.932087 10.016594 -2.569688 0.000000 0.000000 0.000000 0.000000 0.000000 0.000000 -0.981784 0.176011 -3.567610 -78.229980 32.249275 -13.859418 2.425577 -1.923920 -9.548185 -20.713459 -1.002330 -3.934518 2.417774 -0.164536 -2.766143 65.112785 38.735878 25.272417 0.147649 -0.725496 8.110270 29.993628 -3.492881 -10.269474 7.567581 -9.306703 0.292042 -3.062156 14.621172 -17.746689 15.190372 -14.634752 40.699955 0.000000 0.000000 0.000000 -3.964513 -6.183918 -5.826816 5.919641 9.126190 -2.954424 0.642646 -15.393604 -8.460056 0.000000 0.000000 0.000000 
-0.001629 90.449295 -0.001976 -2.732894 6.548735 5.614500 0.991687 -13.583117 -2.372672 0.941821 10.029396 -2.573454 0.000000 0.000000 0.000000 0.000000 0.000000 0.000000 -0.991306 0.188266 -3.563170 -78.201607 32.040421 -13.893546 2.287083 -1.801308 -9.556038 -20.682486 -0.893725 -3.926105 2.412796 -0.170406 -2.764921 65.113159 38.726170 25.274120 0.156282 -0.722157 8.107588 29.991177 -3.489866 -10.269395 7.566926 -9.318565 0.293380 -3.062365 14.631049 -17.735369 15.183504 -14.652488 40.687187 0.000000 0.000000 0.000000 -3.962987 -6.194118 -5.903209 5.901771 9.142333 -2.905269 0.656967 -15.395905 -8.433673 0.000000 0.000000 0.000000 
-0.001868 90.449127 -0.002228 -2.733516 6.554686 5.618399 0.987212 -13.593650 -2.375868 0.951442 10.041776 -2.577151 0.000000 0.000000 0.000000 0.000000 0.000000 0.000000 -1.000471 0.199357 -3.558888 -78.175255 31.839628 -13.925429 2.153852 -1.683103 -9.562935 -20.653084 -0.788965 -3.918258 2.407871 -0.176027 -2.763613 65.113556 38.716724 25.275717 0.164646 -0.718961 8.104993 29.988785 -3.486969 -10.269221 7.566195 -9.330112 0.294763 -3.062422 14.640864 -17.724073 15.176620 -14.670148 40.674343 0.000000 0.000000 0.000000 -3.961488 -6.203908 -5.977483 5.884207 9.157885 -2.857607 0.671109 -15.398108 -8.407797 0.000000 0.000000 0.000000 
-0.002109 90.448967 -0.002495 -2.734169 6.560729 5.622177 0.983045 -13.604134 -2.378945 0.960602 10.053815 -2.580737 0.000000 0.000000 0.000000 0.000000 0.000000 0.000000 -1.009359 0.210591 -3.554680 -78.149666 31.647635 -13.956700 2.026376 -1.569842 -9.569083 -20.625433 -0.688535 -3.910879 2.403150 -0.181305 -2.762260 65.113808 38.707539 25.277433 0.172719 -0.715910 8.102560 29.986483 -3.484264 -10.269079 7.565571 -9.341726 0.296059 -3.062669 14.650618 -17.712984 15.170013 -14.687447 40.661877 0.000000 0.000000 0.000000 -3.960013 -6.213719 -6.049333 5.867121 9.172928 -2.811476 0.684819 -15.400116 -8.382732 0.000000 0.000000 0.000000 
-0.002323 90.448807 -0.002674 -2.734707 6.566252 5.625826 0.979016 -13.613946 -2.381951 0.969463 10.065426 -2.584209 0.000000 0.000000 0.000000 0.000000 0.000000 0.000000 -1.018035 0.221709 -3.550611 -78.125092 31.465410 -13.986919 1.905248 -1.462033 -9.574485 -20.599661 -0.592950 -3.904085 2.398623 -0.186232 -2.760853 65.113937 38.698650 25.279186 0.180481 -0.713078 8.100215 29.984264 -3.481672 -10.268859 7.564879 -9.352666 0.297244 -3.062954 14.660155 -17.702000 15.163582 -14.704451 40.649612 0.000000 0.000000 0.000000 -3.958700 -6.222720 -6.118454 5.850708 9.187187 -2.766713 0.697929 -15.402007 -8.358936 0.000000 0.000000 0.000000 
-0.002529 90.448647 -0.002869 -2.735232 6.571819 5.629308 0.975141 -13.623649 -2.384838 0.978162 10.076594 -2.587601 0.000000 0.000000 0.000000 0.000000 0.000000 0.000000 -1.026313 0.231297 -3.546722 -78.102898 31.293915 -14.014419 1.791105 -1.360122 -9.578961 -20.575926 -0.502419 -3.898096 2.394177 -0.190834 -2.759335 65.114052 38.690102 25.280880 0.187831 -0.710397 8.098008 29.982126 -3.479305 -10.268608 7.564209 -9.363625 0.298305 -3.063338 14.669703 -17.691164 15.157372 -14.721179 40.637711 0.000000 0.000000 0.000000 -3.957466 -6.231672 -6.184721 5.834884 9.200911 -2.723732 0.710563 -15.403841 -8.336095 0.000000 0.000000 0.000000 
-0.002720 90.448494 -0.003017 -2.735708 6.577071 5.632654 0.971648 -13.632864 -2.387622 0.986148 10.087358 -2.590806 0.000000 0.000000 0.000000 0.000000 0.000000 0.000000 -1.034155 0.241324 -3.542933 -78.081322 31.133373 -14.041584 1.684233 -1.264461 -9.582808 -20.554419 -0.417305 -3.892720 2.390113 -0.195120 -2.757761 65.114006 38.681931 25.282629 0.194862 -0.708006 8.096000 29.980034 -3.477088 -10.268379 7.563553 -9.374168 0.299257 -3.063857 14.679064 -17.680546 15.151585 -14.737459 40.626236 0.000000 0.000000 0.000000 -3.956244 -6.240104 -6.248131 5.819516 9.213876 -2.682746 0.722919 -15.405494 -8.314009 0.000000 0.000000 0.000000 
-0.002898 90.448357 -0.003159 -2.736174 6.582263 5.635826 0.968269 -13.641701 -2.390277 0.994109 10.097383 -2.593942 0.000000 0.000000 0.000000 0.000000 0.000000 0.000000 -1.041875 0.250539 -3.539314 -78.061394 30.984190 -14.066666 1.584646 -1.175051 -9.586092 -20.534998 -0.337738 -3.888033 2.386041 -0.199017 -2.756083 65.113968 38.674164 25.284216 0.201405 -0.705780 8.094125 29.978073 -3.475071 -10.268034 7.562912 -9.384625 0.300173 -3.064347 14.688480 -17.670208 15.145908 -14.753431 40.615032 0.000000 0.000000 0.000000 -3.955142 -6.248319 -6.308301 5.804950 9.226200 -2.643486 0.734499 -15.407042 -8.293329 0.000000 0.000000 0.000000 
